<svg width="204" height="200" viewBox="0 0 204 200" fill="none" xmlns="http://www.w3.org/2000/svg">
<rect width="200" height="200" rx="50" fill="#FFFACF"/>
<line x1="102.5" x2="102.5" y2="200.003" stroke="black" stroke-width="5"/>
<line x1="4" y1="97.5" x2="204.003" y2="97.5" stroke="black" stroke-width="5"/>
<path d="M84.5 146.5C84.5 166.382 68.3823 182.5 48.5 182.5C28.6178 182.5 12.5 166.382 12.5 146.5C12.5 126.618 28.6177 110.5 48.5 110.5C68.3823 110.5 84.5 126.618 84.5 146.5Z" fill="#E97927" stroke="black" stroke-width="5"/>
<path d="M187.5 50.5C187.5 70.3823 171.382 86.5 151.5 86.5C131.618 86.5 115.5 70.3823 115.5 50.5C115.5 30.6178 131.618 14.5 151.5 14.5C171.382 14.5 187.5 30.6178 187.5 50.5Z" fill="#E97927" stroke="black" stroke-width="5"/>
<path d="M113 117.136C113 117.136 129.061 125.025 184 182M113 182C148.125 155.704 184 111 184 111" stroke="#6F0789" stroke-width="10"/>
<path d="M13 21.1358C13 21.1358 29.0613 29.0247 84 86M13 86C48.1247 59.7037 84 15 84 15" stroke="#6F0789" stroke-width="10"/>
</svg>
