<svg xmlns="http://www.w3.org/2000/svg" fill="#2D4628" viewBox="0 0 16 16" width="32px" height="32px">
    <path d="M 1 0 L 0 1 L 0 7 L 6 7 L 7 6 L 4.7148438 3.7148438 C 6.1171093 2.3509295 6.6890288 2 8 2 C 10.206 2 12 3.794 12 6 L 12 7 L 14 7 L 14 6 C 14 2.691 11.309 0 8 0 C 5.9154518 0 4.8801705 0.76345583 3.3027344 2.3027344 L 1 0 z M 2 9 L 2 10 C 2 13.309 4.691 16 8 16 C 10.084548 16 11.11983 15.236544 12.697266 13.697266 L 15 16 L 16 15 L 16 9 L 10 9 L 9 10 L 11.285156 12.285156 C 9.8828907 13.649071 9.3109712 14 8 14 C 5.794 14 4 12.206 4 10 L 4 9 L 2 9 z"/>
</svg>
